<svg xmlns="http://www.w3.org/2000/svg" width="1365.711" height="669.069" viewBox="5279.557 4187.962 1365.711 669.069"><g data-name="Multiple Layers (26)"><path d="M6645.267 4636.513c-4.213-5.56-4.953-11.6-6.347-17.374-5.634-23.33-18.6-46.343-15.102-70.083 2.06-13.99 6.62-27.887 8.962-41.87 1.038-6.203-7.673-9.633-18.875-11.946-11.487-2.372-27.019-4.218-24.267-12.228 3.479-10.123 20.733-12.972 39.325-14 2.69-.149 5.357-.395 8.034-.595-1.579-1.134-2.848-2.416-4.783-3.378-30.211-15.04-71.976-13.722-89.921 6.974-27.179 31.345-78.253 48.656-132.3 65.912-21.834 6.972-40.163 16.618-26.588 30.54 14.017 14.377 43.034 11.692 66.839 9.042 63.733-7.096 127.077 1.701 144.426 21.7 15.648 18.035 17.888 37.664 27.674 56.397 4.672 8.946 11.357 17.453 22.923 24.73v35.227c-11.425-10.318-23.122-20.57-33.535-31.126-16.906-17.137-21.734-35.965-30.17-54.328-12.819-27.9-70.525-40.604-134.04-35.038-83.405 7.31-128.474 36.4-174.772 65.99-40.553 25.916-85.326 49.025-159.256 48.562-46.597-.292-85.256-10.264-117.663-26.036-48.808-23.756-102.48-20.729-159.634-8.634-56.878 12.036-114.894 20.93-177.813 9.926-25-4.372-37.316-14.309-51.565-23.797-24.817-16.528-48.696-16.988-68.28 1.104-24.02 22.19-59.848 32.328-108.801 36.829-61.092 5.615-80.496 30.673-51.765 59.928 20.199 20.567 53.76 37.218 70.458 58.735 10.278 13.244 10.15 26.362.002 39.354h-39.847c37.767-38.687-11.073-65.725-56.64-93.13-27.66-16.636-39.98-34.716-30.193-56.495 3.3-7.343 8.056-20.57-16.58-20.647-24.47-.075-22.743 11.334-25.616 20.252v-47.186c41.711 1.237 79.711 10.451 120.49 13.754 56.611 4.585 94.652-9.604 126.76-29.732 10.937-6.854 21.772-13.843 30.786-21.31 9.6-7.954 20.366-18.373-1.894-23.929-22.96-5.73-33.06 5.638-41.743 13.515-16.76 15.201-22.694 34.187-65.64 39.168-43.25 5.017-82.961-2.743-123.838-6.783-14.856-1.468-29.924-2.42-44.92-3.546v-18.07c15.628 2.519 31.222 5.089 46.917 7.503 41.544 6.389 84.067 14.984 123.18-1.924 26.182-11.319 41.359-27.916 70.465-37.952 39.878-13.75 77.824-28.054 96.753-51.296 4.386-5.386 8.81-13.05 23.327-12.618 15.738.467 22.249 8.164 29.106 14.292 21.091 18.846 14.68 40.255 23.031 60.293 4.276 10.262 9.78 20.926 32.976 24.68 17.688 2.864 32.185-2.588 41.203-9.103 17.782-12.848 34.296-26.208 49.088-39.936 35.758-33.187 79.443-62.625 151.099-79.152 19.196-4.427 40.345-7.973 60.978-2.023 11.313 3.263 15.59 9.317 13.844 15.733-3.209 11.8-16.949 21.313-29.585 31.023-26.23 20.154-57.725 39.797-60.729 64.392-3.206 26.268 34.2 45.764 59.675 66.719 21.584 17.754 55.103 28.543 99.187 25.18 81.22-6.2 136.942-30.964 180.302-63.26 13.717-10.217 26.357-22.018 13.047-34.335-12.273-11.357-36.777-9.756-57.302-7.555-43.902 4.707-70.014-3.234-93.94-21.807-30.716-23.845-56.52-24.305-91.218-4.897-25.164 14.075-51.408 30.441-44.425 49.898 10.705 29.833 58.164 45.348 124.097 45.744 8.484.051 19.832-.868 23.59 4.572 1.19 1.72-2.122 5.075-5.474 6.502-13.362 5.691-29.8 7.936-47.203 8.512-48.544 1.606-70.374-14.996-89.297-32.473-14.822-13.689-40.23-26.1-34.473-43.178 7.61-22.571 44.688-38.011 63.383-58.082 16.291-17.49 38.8-20 69.428-7.84 13.808 5.483 26.155 12.269 36.377 19.418 39.703 27.765 67.477 31.024 118.265 12.76 26.31-9.462 49.899-21.735 78.943-28.176 66.586-14.766 115.646-35.188 141.573-70.25 27.678-37.427 97.968-48.137 149.521-26.036v188.294Zm-648.728-108.54c9.866-4.9 23.825-13.214 9.423-18.612-20.69-7.756-37.526 2.531-51.315 8.798-58.694 26.677-98.454 60.58-144.463 92.124-18.185 12.468-40.104 24.064-72.137 27.746-29.378 3.377-38.891-8.439-49.925-18.316-3.288-2.944-4.283-7.952-12.398-7.432-2.95.188-5.974 6.381-6.083 9.856-.593 18.915 22.705 31.017 69.555 31.017 45.104-1.68 81.405-19.11 110.05-39.582 43.425-31.033 93.607-58.93 147.293-85.598m-54.807 52.671c.605-.95.743-1.972 1.1-2.961-2.15.352-4.586.494-6.407 1.087-38.849 12.65-57.256 33.515-83.745 50.993-39.601 26.128-115.473 41.728-160.283 30.591-33.557-8.34-47.467-22.425-47.396-42.992-.247-10.371 8.522-22.449 15.662-34.715 3.03-5.207 9.4-12.188-2.992-15.106-12.084-2.845-19.31 3.715-24.35 8.351-39.355 36.19-28.916 91.636 67.1 103.03 57.082 6.774 104.85-5.9 147.266-22.873 48.97-19.595 75.565-46.423 94.045-75.405" fill="#e4e1d9" fill-rule="evenodd" data-name="Path 55"/><path d="M5734.438 4600.263c-3.518-.34-7.524-3.542-8.4-5.722-7.339-18.299-6.044-37.343-21.436-54.987-5.478-6.28 3.912-9.448 15.41-9.95 55.856-2.444 95.753-14.569 114.897-41.731 11.18-15.864 27.454-31.63 64.87-35.36 26.165-2.608 53.91-1.614 80.964-1.856 34.55-.308 50.996-9.128 44.573-25.439-5.684-14.429-17.226-28.557-19.124-43.04-4.081-31.135 39.003-50.096 83.127-67.482 20.903-8.236 44.434-6.817 62.686 3.616 12.054 6.89 7.664 14.265-1.88 20.812-11.39 7.815-27.845 14.422-35.253 22.974-38.504 44.447-20.071 87.607 25.9 127.26 40.94 35.312 96.663 43.008 151.633 26.926 50.883-14.887 65.546-40.474 82.72-65.539 22.959-33.508 55-62.896 133.924-71.962 42.571-4.891 78.392-15.393 85.797-38.67 6.696-21.041-21.792-34.367-49.87-47.547-23.738-11.142-50.489-21.478-62.292-37.242-20.6-27.513 7.508-47.94 41.168-67.363h49.02c-17.165 5.76-35.098 11.062-47.312 19.732-36.206 25.701-27.622 47.656 23.776 67.054 34.852 13.154 68.178 27.282 95.931 44.162v63.144c-80.35-9.355-142.384 8.26-196.49 35.094-34.55 17.135-47.257 40.895-69.892 61.656-30.014 27.53-68.562 50.75-135.71 56.896-49.24 4.508-73.21-12.599-98.056-28.838-17.983-11.754-30.502-26.766-65.469-29.356-5.558-.411-11.701 1.07-17.574 1.675 1.327 1.357 2.002 3.067 4.112 4 4.82 2.134 10.526 3.78 15.554 5.81 31.723 12.818 55.166 29.22 80.756 44.702 34.984 21.165 77.28 20.515 138.066 3.609 79.55-22.125 119.129-58.937 160.177-95.667 30.181-27.004 115.31-52.137 184.526-37.292v20.955c-80.267-18.886-164.773 2.122-191.68 40.928-11.841 17.079-17.768 35.876-51.002 47.572-38.698 13.619-85.373 20.965-120.723 37.328-16.738 7.748-34.623 16.028-60.321 14.686-33.95-1.773-47.685-16.345-66.884-27.166-35.513-20.016-64.918-44.365-119.42-52.762-73.456-11.317-129.55 7.843-180.83 30.496-48.464 21.41-69.298 51.641-101.81 78.144-3.97 3.236-9.704 6.557-18.159 5.74m159.686-108.784c40.456-10.95 84.542-14.827 129.654-18.133 53.474-3.918 78.409-23.368 56.767-49.177-28.68-34.201-20.758-62.652 34.137-88.077 6.21-2.876 15.28-8.864 6.281-11.353-15.546-4.3-28.726 2.373-39.952 7.132-57.23 24.265-66.656 52.837-36.94 86.803 11.413 13.044 27.313 31.243-16.592 39.215-22.43 4.072-48.263 3.658-72.557 5.272-29.067.688-59.55-.206-81.985 11.272-9.506 4.863-18.716 11.416-10.453 17.68 8.11 6.149 21.667 2.065 31.64-.634" fill="#e4e1d9" fill-rule="evenodd" data-name="Path 59"/><path d="M5279.557 4603.286v-13.592c21.06 8.508 43.897 15.118 72.077 16.837 35.087 2.141 67.461-1.582 91.35-14.074 42.412-22.178 99.842-36.203 136.872-61.028 27.717-18.582 20.517-38.578 2.694-57.39-21.18-22.358-17.278-43.545 2.937-65.014 1.26-1.339 1.558-2.894 2.303-4.348-3.07.39-6.33.573-9.18 1.201-33.933 7.473-47.239 36.793-27.618 59.195 19.655 22.442 45.268 44.902 5.45 68.543-27.161 16.126-65.153 25.533-98.124 38.061-25.064 9.523-46.189 22.741-80.951 23.44-46.194.928-76.218-11.21-97.81-29.23v-90.466c6.026 8.546 12.274 17.06 17.32 25.743 9.558 16.446-5.346 32.791-2.337 49.216 2.941 16.047 20.383 27.912 48.736 35.62 17.414 4.735 35.48 4.585 52.677-1.16 6.751-2.255 10.912-5.195 9.739-9.026-1.404-4.582-9.214-6.457-17.528-7.46-56.328-6.79-68.194-14.717-52.702-42.095 10.116-17.879-8.933-31.133-20.908-45.541-26.03-31.315 14.733-62.252 83.375-62.395 16.56-.035 33.16-.561 49.653-1.32 11.49-.53 24.693-1.627 22.47-9.354-2.033-7.062-15.362-9.666-27.397-9.45-66.551 1.2-143.881 7.454-163.098 45.717v-28.424c51.003-19.752 109.528-28.205 174.275-25.106 24.202 1.158 46.845 7.686 42.647 21.686-4.546 15.158-34.107 13.157-56.329 14.761-40.24 2.905-85.718.096-108.275 22.392-14.897 14.726-4.665 28.781 14.034 40.734 16.127 10.31 22.135 20.225 19.27 33.582-6.331 29.522 23.617 40.104 87.021 32.947 57.895-6.536 107.697-29.558 106.805-49.871-.665-15.165-22.44-26.297-33.249-39.531-21.072-25.805 1.739-46.594 33.462-66.162 48.19-29.726 86.996-61.56 93.926-100.5.643-3.616-.45-7.912-8.619-8.737-9.137-.922-11.681 3.55-14.062 6.85-13.105 18.157-21.306 37.183-41.116 54.145-29.667 25.4-74.894 28.239-129.003 23.957-63.82-5.051-124.52 2.035-180.787 17.741v-14.943c61.332-12.036 126.342-10.26 190.543-11.763 37.38-.875 73.282-4.83 101.17-18.14 57.67-27.527 55.246-68.905-4.08-99.482-8.07-4.158-24.362-9.628-13.933-15.73 10.548-6.173 23.968-.012 34.563 3.744 7.236 2.565 14.616 5.1 21.139 8.066 34.63 15.75 75.206 29.849 69.785 57.273-3.29 16.645-24.33 29.64-38.556 43.996-30.796 31.078 8.93 62.432 79.64 62.432 87.445 0 149.108-43.885 130.22-88.123-13.072-30.612-45.128-57.727-58.12-88.113-7.313-17.104 16.55-37.698 51.451-41.96 29.232-3.57 53.975 6.398 64.077 24.73 14.327 26.004 34.458 50.244 80.991 67.369 48.926 18.004 50.6 24.436 14.437 49.885-30.039 21.14-43.7 42.87-24.715 68.361 17.363 23.312 4.607 32.995-45.96 33.217-64.901.285-106.587 14.937-129.578 43.96-19.776 24.965-67.878 38.036-119.936 31.77-27.77-3.344-38.644-14.253-32.717-26.987 5.287-11.363 26.047-7.197 41.252-5.602 41.275 4.328 78.152 2.813 104.937-15.752 16.948-11.747 35.226-22.857 63.815-28.43 21.783-4.245 43.47-8.768 60.67-16.823 37.96-17.776 31.576-41.799 36.163-64.111 9.776-47.552-36.17-86.857-80.243-126.28-8.584-7.678-20.875-16.854-41.582-10.706-19.633 5.83-13.049 15.994-3.26 23.981 32.624 26.626 66.976 52.487 79.54 83.992 10.734 26.914-2.821 54.169-37.622 66.661-66.957 24.035-142.725 30.273-223.388 28.972-49.482-.797-71.817 13.138-56.078 36.133 25.207 36.827 23.463 70.41-39.402 98.247-32.546 14.41-70.989 25.674-97.504 43.294-23.17 15.398-52.755 22.572-92.441 19.575-30.17-2.28-57.418-8.406-85.278-13.807" fill="#e4e1d9" fill-rule="evenodd" data-name="Path 56"/><path d="M6568.85 4789.721c-58.894-32.453-118.74-49.6-199.027-22.807-43.373 14.474-58.17 46.856-36.23 78.71 2.57 3.73 4.415 7.58 6.395 11.406h-72.89c5.87-15.634 11.172-31.329 17.98-46.865 17.905-40.85 79.217-72.14 160.532-75.42 66.83-2.696 110.198 19.016 144.696 44.968 9.622 7.238 19.29 17.698 42.722 13.405 7.317-1.34 10.83-3.812 12.24-6.74v22.184c-34.58 3.708-56.372-7.794-76.417-18.84" fill="#e4e1d9" fill-rule="evenodd" data-name="Path 57"/><path d="M6535.698 4650.188c22.577 32.03 66.194 58.537 94.899 88.906 5.112 5.409 9.891 10.893 14.67 16.377v22.627c-.356-1.165-.794-2.314-1.236-3.412-10.976-27.322-41.309-48.968-81.976-68.05-65.225-30.606-208.34-23.962-259.899 12.186-28.64 20.08-59.024 39.602-90.206 58.758-9.19 5.645-27.666 10.895-39.023 4.265-11.774-6.872 8.964-9.75 17.515-13.842 15.577-7.455 33.276-14.245 45.635-22.845 47.708-33.204 99.756-63.122 187.11-71.337 15.423-1.45 31.456-4.743 26.224-14.358-4.053-7.446-19.54-7.873-32.88-6.529-72.998 7.356-122.13 31.13-166.69 58.176-25.414 15.425-44.915 34.178-85.985 41.55-33.87 6.08-66.832-2.566-100.434-3.335-27.79-.636-58.517 1.982-82.017-6.897-17.517-6.619-27.393-18.189-45.197-24.495-47.807-16.93-101.708-11.146-152.76-4.785-56.207 7.004-111.029 13.25-169.582 6.652-54.687-6.161-109.507-5.792-161.58 6.527-9.058 2.144-17.482 5.485-15.067 11.07 2.494 5.774 12.958 6.524 23.239 6.5 42.251-.102 83.425-6.309 126.338-4.182 40.295 1.998 69.945 15.18 62.654 30.207-12.67 26.113 15.096 54.933 66.076 64.236 50.59 9.233 105.86 4.077 157.982 9.69 24.567 2.645 49.84 4.422 68.92 13.182h-80.217c-26.958-4.855-55.6-6.025-83.75-6.309-88.646-.89-145.836-20.549-172.747-62.505-17.225-26.854-54.079-35.98-128.334-34.308-26.407.594-57.553 4.853-64.905-12.583-6.795-16.114 23.748-20.423 47.136-25.188 33.051-6.734 60.367-16.954 86.406-28.855 26.41-12.07 45.616.657 64.888 7.347 63.894 22.179 133.162 18.868 196.891 4.332 73.617-16.79 128.294-9.549 184.895 16.521 57.312 26.399 147.13 29.703 201.982 9.737 42.828-15.59 67.321-39.901 105.112-58.08 45.006-21.648 86.172-47.132 154.232-51.096 48.633-2.831 68.4 15.306 81.68 34.145" fill="#e4e1d9" fill-rule="evenodd" data-name="Path 58"/><path d="M6239.755 4501.52c-8.83-4.492 14.93-10.333 25.145-15.01 21.981-10.065 34.695-21.72 22.41-36.248-11.515-13.62-18.3-26.849-6.92-41.283 23.42-29.708 65.51-55.158 77.293-87.763 10.076-27.88-21.228-59.876-76.22-68.551-43.11-6.8-89.114-1.262-132.805-6.554-69.855-8.463-127.87-24.368-157.923-58.15h32.438c25.571 25.534 72.996 37.137 125.714 43.557 71.303 8.684 144.492 13.687 216.229 2.352 44.012-6.955 66.867-25.244 81.258-45.909h27.97c-72.298 47.455-48.544 84.858 34.159 120.01 43.667 18.56 43.828 37.901-9.759 48.32-80.171 15.586-138.422 39.738-162.823 81.469-11.683 19.98-12.435 42.443-48.006 57.58-13.941 5.932-34.144 13.31-48.16 6.18m80.55-75.356c29.42-27.43 76.503-48.742 108.384-75.265 11.377-9.466 16.98-19.91 17.111-32.29-1.396-17.844-15.335-35.032-36.902-50.765-4.61-3.363-11.54-8.026-22.07-5.302-13.913 3.598-12.368 10.273-7.601 15.963 35.477 42.345-5.455 75.609-52.015 108.554-15.689 11.103-31.496 22.615-29.002 37.375.529 3.125 3.444 5.966 8.6 5.946 4.624-.018 11.255-2.129 13.494-4.216" fill="#e4e1d9" fill-rule="evenodd" data-name="Path 60"/><path d="M6159.842 4471.387c-27.876-32.005-17.808-65.827-12.534-99.085 1.073-6.771 13.866-13.885 30.545-12.556 11.041.88 9.337 8.195 7.214 12.488-11.923 24.095-19.337 48.341-11.354 73.058 2.368 7.326.606 18.605 21.905 18.58 22.17-.027 20.487-10.72 19.103-18.387-4.093-22.679-9.149-45.03 6.724-67.474 33.286-47.065 8.704-74.74-90.131-86.433-116.749-13.812-177.547-48.8-199.196-103.617h18.623c.12.374.27.743.503 1.1 30.05 46.203 141.46 83.09 255.91 85.435 36.597.75 73.177 4.123 93.345 21.39 23.075 19.754 5.64 38.264-15.983 54.936-40.061 30.885-78.033 60.864-45.25 100.184 8.886 10.656-1.402 24.403-26.813 30.16-21.881 4.956-43.99.118-52.61-9.779" fill="#e4e1d9" fill-rule="evenodd" data-name="Path 61"/><path d="M5675.426 4386.72c-25.046-8.422-28.127-26.078-5.863-41.451 18.158-12.538 43.295-23.011 45.536-39.91 3.517-26.507-29.871-43.445-64.386-60.219-46.923-22.802-49.715-29.464-20.792-57.179h45.693c-26.626 26.286 7.528 45.823 32.482 66.771 44.304 37.195 39.03 61.169-18.192 97.471-7.991 5.07-19.165 11.963-7.041 17.173 14.677 6.307 31.367.92 42.58-4.665 50.318-25.057 51.61-55.506 39.095-87.602-8.398-21.54-38.01-38.748-48.5-59.75-5.385-10.78 2.108-20.218 11.935-29.398h41.972c-17.047 10.253-30.93 21.69-22.51 35.136 13.453 21.48 34.14 41.918 46.4 63.526 16.998 29.955 30.037 60.531-11.487 89.152-23.328 16.079-75.152 21.627-106.922 10.944" fill="#e4e1d9" fill-rule="evenodd" data-name="Path 62"/><path d="M5995.36 4857.03c-9.518-4.28-18.716-8.807-29.448-12.157-56.503-17.64-121.708-18.16-185.295-21.293-57.873-2.85-98.071-26.566-89.75-54.02 7.073-23.343 54.397-40.584 111.142-41.578 36.222-.635 73.012-4.432 105.598 6.814 17.552 6.057 18.041 18.88 37.609 24.19 28.4 7.709 59.506 2.915 89.343 3.897 39.141 1.287 74.058 6.538 97.07 23.306 33.924 24.718 29.413 41.243-19.715 70.841h-116.553Zm137.982-28.275c9.957-18.062-6.379-31.98-35.01-42.661-25.47-9.503-55.918-11.114-86.833-11.248-34.98-.065-73.263 4.996-99.658-11.037-15.02-9.124-18.256-22.259-47.302-26.35-59.01-8.312-130.331 7.189-144.672 32.666-11.229 19.948 21.687 38.413 78.398 44.877 59.122 6.74 122.793 3.61 177.784 19.098 26.499 7.464 50.484 17.72 82.947 18.222 35.451.547 64.302-5.35 74.346-23.567" fill="#e4e1d9" fill-rule="evenodd" data-name="Path 63"/><path d="M5279.557 4324.528v-28.18c20.756-5.402 41.007-11.406 62.653-15.744 36.819-7.378 66.303-1.783 88.224 14.422 8.375 6.192 15.694 13.79 33.962 13.943 4.542.038 12.068-2.519 13.293-4.584 5.66-9.542-4.092-17.31-16.802-23.657-51.35-25.646-114.926-29.826-178.84-12.291-.797.219-1.635.402-2.49.57v-12.699c55.761-12.737 146.013-6.567 190.827 13.891 22.117 10.097 39.927 22.034 26.466 37.725-11.538 13.45-38.411 14.18-63.375 13.623-51.574-1.15-103.046-2.853-153.918 2.981" fill="#e4e1d9" fill-rule="evenodd" data-name="Path 64"/><path d="M5493.553 4857.03c22.556-21.346 3.296-39.035-22.14-57.106-10.538-7.486-42.054-17.488-10.839-26.683 24.28-7.154 55.218-3.294 78.455 6.618 30.37 12.956 38.361 32.473 57.774 48.66 13.166 10.978 30.314 20.07 49.156 28.511h-152.406Z" fill="#e4e1d9" fill-rule="evenodd" data-name="Path 65"/><path d="M5279.557 4359.839v-13.141c4.144-.7 8.276-1.423 12.511-1.947 58.464-7.229 118.744-1.336 177.638-5.884 40.235-3.107 78.37-18.134 84.782-36.068 5.816-16.262-8.058-30.096-35.485-38.933-72.701-23.426-152.046-34.668-239.446-28.593v-13.863c4.924-.473 9.864-1.061 14.688-.887 87.241 3.157 170.283 16.025 242.67 38.384 58.623 18.106 76.253 50.983 10.613 77.416-43.09 17.352-94.189 19.496-146.965 19.708-40.43.162-81.441-2.537-121.006 3.808" fill="#e4e1d9" fill-rule="evenodd" data-name="Path 66"/><path d="M6002.019 4792.548c-42.505.444-86.244 3.796-121.408-12.668-15.616-7.311-17.139-20.303-39.226-24.668-28.091-5.552-65.943 4.353-71.26 20.424-5.866 17.737 27.858 19.235 50.926 22.575 59.174 8.565 123.991 5.656 180.15 20.696 20.131 5.392 38.052 13.145 61.5 14.949 13.455 1.035 26.613-.957 31.1-8.052 8.006-12.665-7.319-20.393-26.867-26.63-19.77-6.31-42.087-7.214-64.915-6.626" fill="#e4e1d9" fill-rule="evenodd" data-name="Path 80"/><path d="M6591.744 4528.076c-1.6-13.86-16.28-15.567-37.4-10.178a3729.643 3729.643 0 0 0-85.745 22.982c-8.532 2.395-19.17 5.683-16.51 11.316 3.13 6.623 16.968 8.964 28.353 8.6 30.047-.963 61.724.172 87.663-9.62 15.485-5.847 21.861-14.213 23.639-23.1" fill="#e4e1d9" fill-rule="evenodd" data-name="Path 79"/><path d="M5720.547 4462.456c27.884.524 49.952-3.474 57.81-18.148 4.857-9.07-8.408-10.776-21.182-10.635-37.373.412-74.739 1.385-112.042 2.61-9.165.301-20.54 1.667-21.123 7.488-.837 8.345 14.341 10.326 26.198 12.556 22.475 4.227 46.087 6.261 70.34 6.13" fill="#e4e1d9" fill-rule="evenodd" data-name="Path 77"/><path d="M5523.679 4501.291c-19.452-15.299-37.858-34.52-65.26-49.906-24.393-13.697-83.28-9.519-94.896 4.244-11.184 13.25 10.418 21.72 24.082 30.822 15.788 10.515 22.024 21.36 17.484 34.6-6.356 18.54 7.096 23.343 49.25 17.525 34.702-4.791 60.757-14.756 69.34-37.285" fill="#e4e1d9" fill-rule="evenodd" data-name="Path 78"/><path d="M6149.347 4643.29c25.604-1.56 60.18-.565 74.024-18.024 8.896-11.218-12.809-8.696-24.581-9.558-31.46-2.302-53.195-11.39-71.157-23.455-6.603-4.434-11.618-11.681-24.738-10.429-18.006 1.718-25.749 10.118-31.39 17.732-19.998 26.995 8.21 43.733 77.842 43.733" fill="#e4e1d9" fill-rule="evenodd" data-name="Path 76"/><path d="M6645.267 4261.295c-12.443-3.835-22.85-8.84-23.42-16.293-.586-7.69 9.92-12.2 23.42-14.878v31.171Z" fill="#e4e1d9" fill-rule="evenodd" data-name="Path 75"/><path d="M5406.946 4194.532c-16.969-1.09-34.592-1.999-49.685-6.57h133.884c-.164.08-.336.153-.528.209-26.11 7.613-54.862 8.212-83.67 6.361" fill="#e4e1d9" fill-rule="evenodd" data-name="Path 74"/><path d="M5307.256 4857.03c11.558-8.33 26.213-15.726 31.519-25.944 11.297-21.752-11.276-37.437-38.433-52.406-7.128-3.93-13.92-8.003-20.785-12.045v-34.755c5.063 15.962 22.997 29.203 43.09 41.946 39.726 25.197 77.143 50.55 36.915 83.205h-52.306Z" fill="#e4e1d9" fill-rule="evenodd" data-name="Path 72"/><path d="M5439.077 4224.159c-53.21-6.242-102.2-21.405-159.52-19.037v-9.98c39.672-2.666 74.58 6.033 110.535 11.971 60.563 10.002 113.163 3.514 152.687-19.152h41.247c-10.8 24.513-86.57 43.047-144.95 36.198" fill="#e4e1d9" fill-rule="evenodd" data-name="Path 70"/><path d="M6517.518 4792.625c32.657 20.12 69.289 38.134 127.75 35.208v18.256c-61.133-4.255-105.743-21.27-142.922-44.828-19.013-12.045-44.765-19.972-77.508-15.417-32.787 4.56-46.024 16.844-44.385 33.013 1.49 14.706 20.082 25.906 33.441 38.173h-32.84c-5.013-6.736-9.48-13.602-15.836-20.02-21.873-22.087-10.38-46.875 27.896-58.146 40.704-11.985 93.451-5.309 124.404 13.76" fill="#e4e1d9" fill-rule="evenodd" data-name="Path 68"/><path d="M6568.564 4740.32c-83.376-33.336-173.849-30.9-250.438 5.933-63.65 30.608-78.176 71.147-97.756 110.777h-58.759c26.58-40.318 83.966-71.746 130.178-106.358 78.127-58.514 225.559-59.584 304.742-2.547 2.605 1.877 4.458 4.003 6.662 6.012-3.452-1.308-6.97-2.578-10.342-3.935-8.129-3.274-16.134-6.622-24.287-9.882" fill="#e4e1d9" fill-rule="evenodd" data-name="Path 67"/><path d="M6645.267 4210.635c-35.856 4.27-62.998 13.573-61.17 33.974 1.597 17.831 36.165 25.584 58.3 36.963.904.465 1.873.9 2.87 1.324v11.883c-13.302-5.218-26.816-10.32-39.459-15.897-26.11-11.518-60.758-20.628-63.659-40.156-3.861-25.992 50.24-37.088 103.118-43.199v15.108Z" fill="#e4e1d9" fill-rule="evenodd" data-name="Path 71"/><path d="M6163.658 4213.816c-35.403-3.261-68.416-9.991-88.948-25.855h48c36.057 13.382 78.84 14.99 122.126 15.312 29.906.222 56.243-4.09 76.14-15.312h72.926c-7.684 9.96-23.285 16.62-42.055 21.186-61.097 14.864-125.036 10.486-188.19 4.669" fill="#e4e1d9" fill-rule="evenodd" data-name="Path 69"/><path d="M5279.557 4797.066c13.718 6.46 26.502 13.369 27.988 23.24 1.631 10.825-12.713 17.315-27.988 23.316v-46.556Z" fill="#e4e1d9" fill-rule="evenodd" data-name="Path 73"/></g></svg>