<svg xmlns="http://www.w3.org/2000/svg" width="1684.52" height="845.832" viewBox="-216.096 1398.824 1684.52 845.832"><path d="M1449.504 1846.025c-4.547-10.316-4.866-21.283-5.998-31.808-4.574-42.529-18.01-84.947-11.548-127.642 3.807-25.158 10.616-49.993 14.76-75.122 1.838-11.149-8.328-17.898-21.6-22.787-13.608-5.013-32.138-9.33-28.065-23.636 5.148-18.08 26.197-22.142 48.685-22.826 3.252-.1 6.488-.376 9.73-.57-1.793-2.149-3.2-4.546-5.438-6.408-34.959-29.092-85.38-29.347-108.953 6.932-35.7 54.947-98.848 83.018-165.571 110.8-26.956 11.225-49.943 27.506-34.913 53.53 15.52 26.873 50.718 23.85 79.637 20.562 77.425-8.804 152.876 11.097 171.875 48.342 17.135 33.591 17.974 69.217 27.984 103.698 4.779 16.467 12.023 32.266 25.263 46.152l-3.337 63.679c-12.782-19.372-25.897-38.644-37.437-58.383-18.737-32.046-22.767-66.385-31.187-100.113-12.794-51.246-81.085-77.852-158.104-71.799-101.136 7.95-158.167 57.694-216.726 108.26-51.294 44.29-107.402 83.239-196.392 77.736-56.088-3.47-101.7-23.935-139.233-54.493-56.528-46.023-121.451-43.939-191.428-25.683-69.637 18.168-140.348 30.585-215.079 6.722-29.693-9.481-43.583-28.222-59.844-46.273-28.32-31.444-57.034-33.782-82.333-2.313-31.028 38.597-75.137 54.662-134.518 59.708-74.104 6.296-99.845 50.369-68.017 105.065 22.377 38.454 61.217 70.673 79.288 110.623 11.122 24.591 9.726 48.296-3.726 71.142l-47.987-2.515c49.147-67.552-7.11-119.512-59.389-171.929-31.733-31.817-44.857-65.279-31.008-104.03 4.669-13.067 11.65-36.677-18.01-38.37-29.463-1.681-28.464 19.052-32.769 34.992l4.47-85.299c50.116 4.87 95.005 23.924 143.802 32.469 67.742 11.86 114.898-11.388 155.473-45.746 13.82-11.701 27.53-23.651 39.094-36.581 12.314-13.771 26.267-31.927-.014-43.375-27.107-11.807-40.348 8.105-51.552 21.796-21.622 26.421-30.569 60.367-82.76 66.662-52.56 6.34-99.65-10.195-148.494-20.078-17.751-3.591-35.808-6.264-53.761-9.245l1.712-32.666c18.583 5.54 37.119 11.17 55.792 16.525 49.425 14.17 99.82 32.393 148.527 4.297 32.602-18.809 52.451-47.855 88.455-64.16 49.327-22.34 96.38-45.802 121.377-86.62 5.793-9.46 11.847-23.036 29.29-21.34 18.907 1.84 26.02 16.164 33.697 27.673 23.614 35.4 13.865 73.696 22.024 110.446 4.177 18.82 9.795 38.445 37.374 46.696 21.03 6.293 39.005-2.647 50.482-13.855 22.632-22.103 43.786-45.212 62.9-69.094 46.207-57.736 101.606-108.194 189.466-133.547 23.537-6.792 49.342-11.867 73.626.19 13.316 6.613 17.893 17.827 15.183 29.315-4.983 21.128-22.431 37.458-38.57 54.213-33.496 34.778-73.287 68.299-79.234 112.57-6.35 47.283 36.85 84.886 65.544 124.374 24.312 33.456 63.656 55.076 117.065 51.777 98.4-6.08 167.85-47.33 223.128-102.974 17.488-17.604 33.828-38.139 18.966-61.244-13.705-21.305-43.365-19.957-68.292-17.274-53.317 5.739-84.011-10.265-111.065-45.35-34.733-45.043-65.764-47.503-109.39-14.609-31.638 23.855-64.793 51.784-58.227 87.396 10.066 54.606 65.75 85.647 145.115 90.525 10.213.628 23.966-.317 27.976 9.754 1.27 3.185-3.037 9.04-7.208 11.408-16.631 9.445-36.64 12.466-57.653 12.408-58.613-.16-83.33-31.55-104.463-64.337-16.552-25.682-45.976-49.72-37.425-80.23 11.303-40.322 57.42-65.892 81.835-100.994 21.276-30.588 48.621-33.706 84.353-9.791 16.11 10.783 30.337 23.829 41.97 37.398 45.183 52.696 78.322 60.34 141.216 30.53 32.582-15.443 62.151-36.142 97.739-45.95 81.588-22.49 142.605-56.312 177.15-118.056 36.879-65.913 122.542-80.836 182.533-37.63l-17.838 340.38Zm-770.973-237.15c12.346-8.239 29.944-22.386 13.111-33.053-24.182-15.326-45.431 2.208-62.631 12.667-73.212 44.52-124.307 103.298-182.703 157.415-23.082 21.391-50.576 40.97-89.503 45.604-35.699 4.25-46.037-17.71-58.388-36.261-3.681-5.53-4.405-14.645-14.227-14.218-3.57.155-7.8 11.158-8.26 17.433-2.506 34.156 24.405 57.502 80.826 60.46 54.477-.19 99.846-29.409 136.282-64.607 55.237-53.358 118.313-100.62 185.493-145.44m-70.994 91.755c.82-1.68 1.082-3.52 1.605-5.284-2.622.5-5.57.604-7.818 1.561-47.984 20.417-72.128 56.972-105.684 86.894-50.167 44.733-143.017 68.146-195.926 45.185-39.622-17.194-55.04-43.534-53.005-80.709.685-18.764 12.39-40.043 22.15-61.767 4.144-9.22 12.476-21.438-2.171-27.495-14.284-5.905-23.607 5.497-30.117 13.56-50.822 62.936-43.504 163.825 71.047 190.482 68.103 15.85 126.83-4.049 179.518-32.053 60.83-32.331 95.4-79.149 120.401-130.374" fill="#cbcbcb" fill-rule="evenodd" data-name="Path 82462"/></svg>