<svg xmlns="http://www.w3.org/2000/svg" width="41.177" height="32.118" viewBox="336.411 18.941 41.177 32.118"><path d="M342.176 18.94a.82.82 0 0 0-.582.242l-2.47 2.47a.823.823 0 0 0-.218.783l.824 3.294a.826.826 0 0 0 .8.624h4.117V28h-1.155c-1.555 0-2.98.88-3.679 2.27l.026-.049-2.82 4.792a4.114 4.114 0 0 0-.608 2.152v7.56a2.229 2.229 0 0 0 2.217 2.216h1.153c.396 2.33 2.428 4.118 4.866 4.118 2.438 0 4.47-1.788 4.865-4.118h14.975c.396 2.33 2.428 4.118 4.866 4.118 2.438 0 4.47-1.788 4.866-4.118h.899a2.483 2.483 0 0 0 2.47-2.47v-3.798a4.127 4.127 0 0 0-3.44-4.061l-6.859-1.144-5.732-6.004A4.117 4.117 0 0 0 358.409 28h-.585v-1.647h4.117a.823.823 0 0 0 .737-.455l1.647-3.295a.824.824 0 0 0-.52-1.162l-9.058-2.471a.836.836 0 0 0-.218-.03h-12.353Zm4.118 7.413h9.882V28h-9.882v-1.647Zm-2.802 3.294h6.92v5.765h-11.717l2.577-4.378.013-.026a2.466 2.466 0 0 1 2.207-1.361Zm8.567 0h6.35c.729 0 1.419.32 1.888.878l.016.02 4.644 4.867H352.06v-5.765Zm-7.412 13.177a3.282 3.282 0 0 1 3.294 3.294 3.282 3.282 0 0 1-3.294 3.294 3.282 3.282 0 0 1-3.294-3.294 3.282 3.282 0 0 1 3.294-3.294Zm24.706 0a3.282 3.282 0 0 1 3.294 3.294 3.282 3.282 0 0 1-3.294 3.294 3.282 3.282 0 0 1-3.294-3.294 3.282 3.282 0 0 1 3.294-3.294Z" fill="#fff" fill-rule="evenodd" data-name="car-roof-box-svgrepo-com"/></svg>