<svg xmlns="http://www.w3.org/2000/svg" width="32.909" height="36.043" viewBox="330.545 15.478 32.909 36.043"><path d="m337.356 15.478-.883 1.827-2.01.24 1.527 1.35-.402 2.068 1.768-1.033 1.769 1.033-.403-2.068 1.528-1.35-2.01-.24-.884-1.827Zm1.769 5.485h-4.427a4.112 4.112 0 0 0-4.153 4.153v25.622c0 .43.353.783.784.783h13.32v-7.835h4.702v7.835h13.32a.786.786 0 0 0 .784-.783V25.116a4.112 4.112 0 0 0-4.154-4.153h-20.176Zm2.892 0 1.768-1.033 1.769 1.033-.403-2.068 1.528-1.35-2.01-.24-.884-1.827-.883 1.827-2.01.24 1.528 1.35-.403 2.068Zm6.43 0 1.768-1.033 1.768 1.033-.403-2.068 1.528-1.35-2.01-.24-.883-1.827-.884 1.827-2.01.24 1.528 1.35-.403 2.068Zm6.428 0 1.77-1.033 1.767 1.033-.402-2.068 1.527-1.35-2.01-.24-.883-1.827-.884 1.827-2.01.24 1.528 1.35-.403 2.068Zm-19.628 3.918h4.701v3.134h-4.701V24.88Zm9.402 0h4.702v3.134h-4.702V24.88Zm9.403 0h4.701v3.134h-4.701V24.88Zm-18.805 6.268h4.701v3.134h-4.701V31.15Zm9.402 0h4.702v3.134h-4.702V31.15Zm9.403 0h4.701v3.134h-4.701V31.15Zm-18.805 6.269h4.701v3.134h-4.701v-3.134Zm9.402 0h4.702v3.134h-4.702v-3.134Zm9.403 0h4.701v3.134h-4.701v-3.134Zm-18.805 6.268h4.701v3.134h-4.701v-3.134Zm18.805 0h4.701v3.134h-4.701v-3.134Z" fill="#fff" fill-rule="evenodd" data-name="hotel-building-svgrepo-com"/></svg>