<svg xmlns="http://www.w3.org/2000/svg" width="38.347" height="36.899" viewBox="0 0.864 38.347 36.899"><path d="M38.229 27.768c-1.561-5.57-5.777-10.951-8.807-15.813-2.135-3.427-4.462-7.289-8.458-8.681.013-.13.015-.265.015-.406l-.009-1.411c-.005-.793-1.193-.787-1.225 0-.013.31-.061.617-.068.927-.004.153.007.306.02.459-6.307 3.073-5.725 13.528-6.618 19.969a4.954 4.954 0 0 0-.866-.85 5.5 5.5 0 0 0-.804-.569c-.26-.152-.57.03-.605.315a.45.45 0 0 0-.072.17c-.13.72-.283 1.317-.61 1.87a6.544 6.544 0 0 0-2.02-2.672c-1.16-1.383-2.733-2.342-4.57-2.281-.437.014-.603.498-.338.813a.703.703 0 0 0 .183.84c1.4 1.065 2.114 2.538 2.135 4.259-.042-.02-.08-.044-.12-.065-.438-.438-.669-1.034-.876-1.725-.07-.23-.426-.227-.485-.023a.599.599 0 0 0-.086-.019c-.04-.073-.115-.125-.222-.094-1.765.523-2.323 1.877-2.162 3.358-.244 1.333.145 2.638.95 3.719-.032.004-.063.001-.095.008a2.625 2.625 0 0 0-.624.208c-.642.218-1.233.583-1.569 1.191-.36.652-.29 1.501.253 2.03.33.32.758.469 1.201.5.012.003.023.008.036.01.318.056.623.007.908-.106l.055-.012a3.889 3.889 0 0 0 1.16-.592c.027.356.089.711.215 1.043.002.008 0 .016.001.024.114.79.628 1.549 1.376 1.852.614.248 1.214.058 1.661-.357l.05-.032c-.03.695.208 1.35.923 1.866 1.59 1.147 3.87-1.597 3.945-3.25 1.5.919 3.313 1.507 4.175.188.115-.175.19-.346.248-.514 4.1 1.76 9.497.157 13.483-1.09 2.149-.673 9.448-1.016 8.316-5.057ZM5.434 20.945c1.027.375 1.938.969 2.64 1.768.57.988.971 2.094 1.222 3.11.116.468.924.378.86-.117-.008-.058-.022-.117-.03-.176l.021-.028a.55.55 0 0 0 .168-.112c.726-.73 1.104-1.502 1.347-2.417.56.446.93.975 1.151 1.545.003.015.01.026.014.04.307.818.308 1.72.065 2.6-.105-.389-.303-.754-.551-1.105l-.002-.005c-.003-.006-.009-.008-.011-.013a6.34 6.34 0 0 0-.543-.664c-.193-.205-.62-.182-.744.096-.06.135-.331.608-.669 1.1-.44.323-.868.662-1.303.999-.256-.218-.533-.43-.758-.675-.333-.538-.68-1.069-.984-1.626-.128-.234-.363-.23-.528-.11.064-1.16-.254-2.216-.766-3.2-.005-.012-.012-.023-.018-.035a9.249 9.249 0 0 0-.449-.774 15.461 15.461 0 0 0-.132-.201ZM2.17 32.579c-.065.007-.13.009-.196.01-.018 0-.15-.01-.171-.008-.086-.02-.293-.083-.188-.038-.046-.02-.09-.045-.133-.07l-.01-.056a1.84 1.84 0 0 1-.009-.164c0-.07 0-.141.002-.211l.005-.052v-.005c.328.032.633.155.901.34.038.058.075.118.111.179-.1.03-.298.073-.312.075Zm1.317-.608c-.011.009-.025.016-.036.024-.461-.41-.97-.718-1.577-.82a4.76 4.76 0 0 1 .676-.487 6.03 6.03 0 0 1 .519-.183c.32.322.683.61 1.074.868-.237.185-.45.446-.656.598Zm.768-5.504c-.198-.182-.562-.066-.551.228.02.533.072 1.053.193 1.54.058.361.126.712.215 1.049-.77-.83-1.346-1.814-1.55-2.792.127-.716.482-1.416 1.023-2.038.293.504.786.8 1.472 1.042.252.237.558.45.948.636.226.107.542.049.668-.182.06.497.082.996.104 1.495-.055.23-.107.46-.158.69-.833-.49-1.638-1-2.364-1.668Zm1.784 8.148c-.285-.077-.502-.257-.672-.49.058-.067.12-.126.187-.18.035-.013.063-.03.103-.042.38-.116.795.023 1.17-.03l.098.042c-.147.473-.394.832-.886.7ZM7.22 32.52c-.044.146-.078.348-.116.572-.5-.423-1.541-.252-2.055.02-.032.018-.062.039-.094.057-.024-.095-.051-.19-.07-.287.054-.325.147-.646.266-.954.643.285 1.34.48 2.07.564l-.001.028Zm.76-1.123c-.81-.068-1.648-.4-2.42-.896-.25-.519-.391-1.082-.483-1.657a5.291 5.291 0 0 0 1.745.77c.31.073.528-.112.605-.383a.437.437 0 0 0 .168-.406c-.013-.096-.015-.192-.025-.287.061-.268.13-.533.197-.797.082.08.165.16.249.239.124.215.247.43.364.65a.403.403 0 0 0 .454.185c.03-.008.059-.02.09-.03a.601.601 0 0 0 .38-.058c.78-.433 1.475-.989 2.22-1.472.193.485.32.954.365 1.53a.632.632 0 0 0 .081.264c-.54.763-1.237 1.429-2.042 1.877-.183.102-.373.18-.566.248v-.024c-.011-.148-.247-.203-.275-.037-.009.053-.028.105-.044.158-.347.087-.703.129-1.063.126Zm.481 4.512a1.36 1.36 0 0 1 .006-.577c.008-.004.016-.004.025-.007.217.001.434.008.651.022.286.018.556.086.825.158-.403.373-.885.574-1.507.404Zm2.066-1.347c-.566-.17-1.205-.157-1.816-.063.023-.069.045-.137.061-.195.07-.256.141-.51.213-.763.057-.18.111-.361.16-.544.058-.193.115-.386.177-.58.059-.01.116-.017.175-.03a2.91 2.91 0 0 0 .302-.085c.01.09.042.182.12.27.252.284.663.654 1.152 1.026-.12.14-.31.524-.544.964Zm2.866-1.223c.016.084.046.158.071.236-.317-.135-.615-.286-.837-.392-.679-.327-1.38-.731-1.976-1.202a5.59 5.59 0 0 0 1.025-.615l.056-.04c.032-.026.062-.053.094-.078.705.084 1.401.38 2.021.706-.397.309-.546.886-.454 1.385Zm1.556.476a.955.955 0 0 1-.208.042c-.143-.204-.249-.44-.133-.68.074-.153.217-.242.376-.313.325.375.474.766-.035.951Zm1.201-1.843c-.01.001-.016.006-.026.008a2.763 2.763 0 0 0-.699-.706c-.542-.387-1.693-.85-2.668-.95a.12.12 0 0 0-.01-.001c.047-.06.088-.123.132-.184a6.773 6.773 0 0 0 1.316-3.91.382.382 0 0 0 .1-.174c1.254-4.687 1.745-9.552 2.988-14.248.594-2.245 1.373-4.442 2.536-6.452-.006.21-.017.42-.025.63-1.973 4.549-2.327 9.572-3.456 14.372-1 4.257-1.404 7.526.22 11.587l-.408.028Zm1.547-12.381c.835-3.579 1.221-7.222 1.95-10.81-.533 7.599-1.974 15.07-2.236 22.692-1.404-4.234-.73-7.533.286-11.882Zm1.299 12.208c.428-2.748.558-5.522.678-8.296.554-3.47 1.034-6.997 1.197-10.485 2.413 6.154 3.816 13.042 8.198 18.118-3.329.428-6.725.499-10.073.663Zm5.427-13.99c-1.431-3.075-3.296-6.927-3.565-10.584 1.059 3.332 2.566 6.427 4.535 9.37 2.66 3.98 6.914 7.29 5.948 12.06-.233.475-.476.946-.659 1.441-2.384-3.97-4.302-8.08-6.26-12.287ZM36.41 28.887c-.302.387-.812.708-1.427.977-.889.287-1.79.512-2.698.71.38-.929.606-1.844.681-2.744.259-.652.46-1.315.556-1.973.194-1.32-1.265-2.882-2.24-3.96a14.42 14.42 0 0 0-.815-1.112c-3.79-4.669-6.717-9.324-9.032-14.809a22.754 22.754 0 0 1-.267-.886c1.861 1.434 5.47 6.36 5.84 6.86 1.988 2.686 3.801 5.489 5.484 8.376a87.844 87.844 0 0 1 2.075 3.79c.54 1.038 2.268 3.443 1.843 4.771Z" fill="#fff" fill-rule="evenodd" data-name="Path 82460"/></svg>