<svg xmlns="http://www.w3.org/2000/svg" width="39.953" height="39.161" viewBox="333.595 14 39.953 39.161"><path d="m355.332 41.864-5.992-1.177c.086-.665.15-1.308.185-1.924l4.108-2.758a52.063 52.063 0 0 1 1.699 5.859Zm-4.92-12.517-2.026 1.36c.185.466.36.958.51 1.491l3.459.68a26.13 26.13 0 0 0-1.866-3.377 3.291 3.291 0 0 1-.077-.154Zm3.027 6.124a36.504 36.504 0 0 0-.805-1.978l-3.591-.705c.368 1.502.575 3.254.514 5.289l3.882-2.606ZM343.1 26.126a1.683 1.683 0 0 0-.11.586c0 .66.377 1.226.925 1.514a2.147 2.147 0 0 0-.099.611 2.179 2.179 0 0 0 4.156.926c.067.139.135.277.2.424l2.009-1.35a8.49 8.49 0 0 0-.094-.207 7.106 7.106 0 0 1-.328-.793c.25.143.536.232.845.232a1.712 1.712 0 1 0-1.217-2.915c.185-2.502 1.846-4.748 4.431-6.01a7.544 7.544 0 0 1 7.209.324c-2.105-2.938-6.08-4.026-9.442-2.385a7.522 7.522 0 0 0-3.913 4.604c-.008-1.454.39-2.722 1.508-3.903a7.54 7.54 0 0 1 7.618-2.047c-2.785-2.31-6.906-2.351-9.74.088a7.52 7.52 0 0 0-2.616 5.333 5.923 5.923 0 0 0-6.303-2.48 5.921 5.921 0 0 0-4.531 6.15 5.916 5.916 0 0 1 4.207-3.788 5.922 5.922 0 0 1 6.267 2.425 7.523 7.523 0 0 0-6.102.252c-3.353 1.656-4.926 5.463-3.889 8.929a7.532 7.532 0 0 1 9.01-6.52Zm15.073 20.604 2.779-.547a12.13 12.13 0 0 1-.086-.892l-1.906-1.279c-.315.89-.578 1.797-.787 2.718Zm3.223-5.178-.94-.631c-.018.035-.03.061-.036.07-.328.501-.617 1.025-.867 1.568l1.604-.316c.07-.246.15-.473.24-.69Zm-1.973 1.295c-.133.3-.256.609-.372.919l1.8 1.207a9.05 9.05 0 0 1 .239-2.455l-1.667.329Zm-1.931-8.237a3.505 3.505 0 0 1 3.534.95c.518.548.703 1.135.699 1.81a3.495 3.495 0 0 0-1.816-2.137 3.507 3.507 0 0 0-4.383 1.107 3.504 3.504 0 0 1 3.347-.15c1.2.585 1.971 1.628 2.055 2.788a.796.796 0 1 0-.174 1.247 3.183 3.183 0 0 1-.152.367 1.269 1.269 0 0 1-.044.097l.934.625c.03-.066.06-.131.092-.196a1.01 1.01 0 0 0 1.883-.713.79.79 0 0 0 .43-.701.774.774 0 0 0-.052-.273 3.493 3.493 0 0 1 2.253.289 3.504 3.504 0 0 1 1.927 2.735 3.502 3.502 0 0 0-1.804-4.14 3.489 3.489 0 0 0-2.832-.117 2.752 2.752 0 0 1 2.907-1.128 2.748 2.748 0 0 1 1.951 1.758 2.747 2.747 0 0 0-5.027-1.703 3.483 3.483 0 0 0-1.212-2.474 3.496 3.496 0 0 0-4.516-.041Zm4.353 15.119c-.434-1.216-.714-2.314-.86-3.291l-2.874.566c-.065.292-.123.573-.176.846l2.738 1.84-.476-.014-2.313-1.554c-.104.57-.18 1.078-.238 1.508-.329-.005-.663-.005-.995-.007a69.385 69.385 0 0 0-.7-4.756l-7.293 4.897-1.062.052 8.244-5.535a66.2 66.2 0 0 0-.375-1.828l-6.198-1.217c-.377 2.513-1.146 5.38-2.424 8.62-5.344.306-8.951.878-8.951 1.534 0 .977 7.982 1.77 17.828 1.77s17.827-.793 17.827-1.77c.001-.765-4.878-1.415-11.702-1.661Z" fill="#fff" fill-rule="evenodd" data-name="travel-svgrepo-com"/></svg>